<svg width="881" height="326" viewBox="0 0 881 326" fill="none" xmlns="http://www.w3.org/2000/svg">
<path d="M265.135 227.837H327.441V199.894H287.28V94.6425H265.135V227.837Z" fill="white"/>
<path d="M364.355 209.208C355.472 209.208 350.842 197.658 350.842 180.334C350.842 163.009 355.472 151.273 364.355 151.273C373.238 151.273 377.992 163.009 377.992 180.334C377.992 197.658 373.238 209.208 364.355 209.208ZM364.48 230.817C385.123 230.817 398.635 209.022 398.635 180.334C398.635 151.646 385.123 129.85 364.48 129.85C343.961 129.85 330.199 151.646 330.199 180.334C330.199 209.022 343.961 230.817 364.48 230.817Z" fill="white"/>
<path d="M434.368 260.809C443.876 260.809 452.259 257.642 457.889 250.191C463.019 243.298 466.397 232.866 466.397 218.522V132.458H446.879V142.704H446.629C442.876 134.694 437.12 129.664 428.613 129.664C412.724 129.664 401.714 149.41 401.714 177.353C401.714 206.6 415.101 222.621 429.489 222.621C437.246 222.621 442.125 217.964 445.878 211.63H446.379V221.13C446.379 232.68 442.75 239.386 434.118 239.386C427.362 239.386 423.984 235.102 422.858 230.072H403.09C405.092 250.005 416.727 260.809 434.368 260.809ZM434.243 200.08C426.611 200.08 421.606 190.766 421.606 176.422C421.606 161.892 426.611 152.577 434.243 152.577C442.75 152.577 447.255 163.382 447.255 176.236C447.255 189.648 443.126 200.08 434.243 200.08Z" fill="white"/>
<path d="M506.528 209.208C497.645 209.208 493.016 197.658 493.016 180.334C493.016 163.009 497.645 151.273 506.528 151.273C515.411 151.273 520.165 163.009 520.165 180.334C520.165 197.658 515.411 209.208 506.528 209.208ZM506.653 230.817C527.297 230.817 540.809 209.022 540.809 180.334C540.809 151.646 527.297 129.85 506.653 129.85C486.135 129.85 472.372 151.646 472.372 180.334C472.372 209.022 486.135 230.817 506.653 230.817Z" fill="white"/>
<path d="M546.762 227.837H567.155V132.458H546.762V227.837ZM546.762 119.232H567.155V94.6425H546.762V119.232Z" fill="white"/>
<path d="M576.007 259.319H596.401V217.964H596.651C600.654 225.974 606.535 230.817 614.792 230.817C631.557 230.817 642.692 211.071 642.692 180.148C642.692 151.46 632.308 129.664 615.292 129.664C606.535 129.664 600.279 135.439 595.9 144.008H595.525V132.458H576.007V259.319ZM609.537 207.345C600.779 207.345 595.775 196.727 595.775 181.265C595.775 165.804 600.279 154.068 609.162 154.068C617.92 154.068 622.049 164.872 622.049 181.265C622.049 197.472 617.294 207.345 609.537 207.345Z" fill="white"/>
<path d="M675.894 230.817C692.659 230.817 705.045 220.013 705.045 199.149C705.045 174.745 691.783 170.461 680.523 167.666C672.391 165.431 665.134 164.5 665.134 157.793C665.134 151.832 669.013 149.038 674.017 149.038C679.647 149.038 683.526 151.646 684.276 160.215H703.043C702.042 141.4 692.284 129.664 674.142 129.664C659.004 129.664 646.492 140.096 646.492 160.215C646.492 182.569 658.378 187.04 669.513 189.834C678.021 192.07 685.778 193.001 685.778 201.57C685.778 207.718 681.899 211.071 675.769 211.071C669.013 211.071 664.759 206.414 664.008 196.913H644.741C645.366 217.964 657.127 230.817 675.894 230.817Z" fill="white"/>
<path d="M732.747 230.631C741.63 230.631 747.26 225.415 751.889 216.101H752.264V227.837H771.782V132.458H751.389V185.736C751.389 197.1 747.135 204.924 740.129 204.924C733.623 204.924 730.495 199.149 730.495 188.717V132.458H710.227V195.05C710.227 216.287 717.984 230.631 732.747 230.631Z" fill="white"/>
<path d="M780.649 227.837H801.043V174.373C801.043 163.009 804.796 154.999 811.177 154.999C817.307 154.999 820.185 160.96 820.185 171.206V227.837H840.578V174.373C840.578 163.009 844.207 154.999 850.712 154.999C856.843 154.999 859.72 160.96 859.72 171.206V227.837H880.114V165.804C880.114 144.381 872.857 129.664 858.344 129.664C850.087 129.664 843.206 134.88 838.201 146.43H837.951C834.698 136.184 828.317 129.664 819.935 129.664C810.676 129.664 804.546 136.184 800.542 146.057H800.167V132.458H780.649V227.837Z" fill="white"/>
<path fill-rule="evenodd" clip-rule="evenodd" d="M107.827 7.4664C166.535 7.4664 214.127 78.3285 214.127 165.741C214.127 253.155 166.535 324.018 107.827 324.018C49.1188 324.018 1.52661 253.155 1.52661 165.741C1.52661 78.3285 49.1188 7.4664 107.827 7.4664ZM210.047 165.741C210.047 81.684 164.281 13.541 107.827 13.541C103.273 13.541 98.7893 13.9844 94.3926 14.8437C97.2332 14.4739 100.108 14.2852 103.012 14.2852C156.958 14.2852 200.689 79.3988 200.689 159.721C200.689 240.042 156.958 305.155 103.012 305.155C51.9407 305.155 10.0238 246.794 5.70309 172.419C8.05025 253.379 52.8746 317.942 107.827 317.942C164.281 317.942 210.047 249.8 210.047 165.741ZM196.609 159.721C196.609 82.7535 154.705 20.3599 103.012 20.3599C98.8153 20.3599 94.6825 20.7712 90.6314 21.5683C93.1259 21.2558 95.6495 21.0964 98.1981 21.0964C147.381 21.0964 187.251 80.4614 187.251 153.691C187.251 226.922 147.381 286.286 98.1981 286.286C51.6948 286.286 13.5167 233.213 9.49551 165.527C11.54 239.801 52.627 299.081 103.012 299.081C154.705 299.081 196.609 236.687 196.609 159.721ZM98.1981 27.1711C145.127 27.1711 183.171 83.8161 183.171 153.691C183.171 223.566 145.127 280.211 98.1981 280.211C52.3564 280.211 14.9927 226.16 13.2863 158.525C16.9706 219.573 51.4249 267.416 93.3844 267.416C137.801 267.416 173.808 213.804 173.808 147.669C173.808 81.5349 137.801 27.9228 93.3844 27.9228C91.0865 27.9228 88.811 28.0663 86.5621 28.3475C90.3666 27.5718 94.2508 27.1711 98.1981 27.1711ZM169.728 147.669C169.728 84.8904 135.548 33.9975 93.3844 33.9975C89.8219 33.9975 86.3161 34.3607 82.8838 35.0638C84.7579 34.8454 86.6523 34.7341 88.5645 34.7341C128.219 34.7341 160.365 82.5975 160.365 141.641C160.365 200.683 128.219 248.547 88.5645 248.547C51.2412 248.547 20.5693 206.145 17.0927 151.928C18.5968 212.734 52.1781 261.342 93.3844 261.342C135.548 261.342 169.728 210.449 169.728 147.669ZM88.5645 40.8088C125.965 40.8088 156.285 85.953 156.285 141.641C156.285 197.329 125.965 242.473 88.5645 242.473C51.9005 242.473 22.0417 199.09 20.8795 144.919C24.0184 192.501 50.9686 229.678 83.7502 229.678C118.642 229.678 146.927 187.563 146.927 135.611C146.927 83.6601 118.642 41.5453 83.7502 41.5453C82.1504 41.5453 80.5641 41.6338 78.9939 41.8079C82.1207 41.1493 85.3157 40.8088 88.5645 40.8088ZM142.847 135.611C142.847 87.0148 116.388 47.62 83.7502 47.62C80.771 47.62 77.8434 47.9482 74.9825 48.5818C76.2883 48.4425 77.6067 48.3716 78.9366 48.3716C109.062 48.3716 133.484 84.7344 133.484 129.59C133.484 174.446 109.062 210.808 78.9366 210.808C50.7069 210.808 27.486 178.879 24.6745 137.952C25.508 185.467 51.6381 223.603 83.7502 223.603C116.388 223.603 142.847 184.208 142.847 135.611ZM78.9366 54.4463C106.809 54.4463 129.404 88.0891 129.404 129.59C129.404 171.091 106.809 204.733 78.9366 204.733C51.4185 204.733 29.0446 171.942 28.4796 131.171C31.0216 165.353 50.4868 191.939 74.1223 191.939C99.4852 191.939 120.046 161.325 120.046 123.561C120.046 85.797 99.4852 55.1829 74.1223 55.1829C73.1522 55.1829 72.1893 55.2277 71.2343 55.3159C73.7454 54.7433 76.3175 54.4463 78.9366 54.4463ZM115.966 123.561C115.966 89.1517 97.2322 61.2576 74.1223 61.2576C71.8015 61.2576 69.525 61.5389 67.3068 62.0798C67.9678 62.0279 68.633 62.0017 69.3029 62.0017C89.9027 62.0017 106.603 86.8666 106.603 117.539C106.603 148.212 89.9027 173.077 69.3029 173.077C50.2547 173.077 34.5414 151.817 32.2817 124.365C32.571 158.404 51.1929 185.864 74.1223 185.864C97.2322 185.864 115.966 157.97 115.966 123.561ZM69.3029 68.0763C87.6496 68.0763 102.523 90.2213 102.523 117.539C102.523 144.857 87.6496 167.002 69.3029 167.002C50.9557 167.002 36.0826 144.857 36.0826 117.539C36.0826 117.474 36.0827 117.408 36.0828 117.343C37.993 138.16 49.9827 154.2 64.4887 154.2C80.3232 154.2 93.1597 135.087 93.1597 111.511C93.1597 87.9331 80.3232 68.8206 64.4887 68.8206C64.1305 68.8206 63.774 68.8303 63.419 68.8497C65.3285 68.3415 67.2948 68.0763 69.3029 68.0763ZM89.0795 111.511C89.0795 91.2885 78.0701 74.8952 64.4887 74.8952C50.9072 74.8952 39.8973 91.2885 39.8973 111.511C39.8973 131.732 50.9072 148.125 64.4887 148.125C78.0701 148.125 89.0795 131.732 89.0795 111.511Z" fill="white"/>
</svg>
