<svg width="24" height="24" viewBox="0 0 24 24" fill="none" xmlns="http://www.w3.org/2000/svg">
<path d="M3 3V22" stroke="#4B5159" stroke-width="1.5" stroke-linecap="round" stroke-linejoin="round"/>
<path d="M20 4L20 13" stroke="#4B5159" stroke-width="1.5" stroke-linecap="round" stroke-linejoin="round"/>
<path d="M3 3.5C4.13493 2.53854 5.66079 2 7.25 2C8.83921 2 10.3651 2.53854 11.5 3.5C12.6349 4.46146 14.1608 5 15.75 5C17.3392 5 18.8651 4.46146 20 3.5" stroke="#4B5159" stroke-width="1.5" stroke-linecap="round" stroke-linejoin="round"/>
<path d="M3 13.5C4.13493 12.5385 5.66079 12 7.25 12C8.83921 12 10.3651 12.5385 11.5 13.5C12.6349 14.4615 14.1608 15 15.75 15C17.3392 15 18.8651 14.4615 20 13.5" stroke="#4B5159" stroke-width="1.5" stroke-linecap="round" stroke-linejoin="round"/>
</svg>
